<svg width="20" height="23" viewBox="0 0 20 23" fill="none" xmlns="http://www.w3.org/2000/svg">
<path fill-rule="evenodd" clip-rule="evenodd" d="M13.5789 3.67058C14.4148 2.67863 14.8341 1.60694 14.8341 0.459142V0.459127C14.8341 0.306892 14.827 0.153439 14.81 0C14.2278 0.0302033 13.6087 0.206607 12.9542 0.525583C12.2983 0.849391 11.7574 1.25531 11.3321 1.74349C10.4803 2.70767 10.0006 3.88691 10.0006 4.98879C10.0006 5.14108 10.0104 5.28601 10.0272 5.42371C11.3502 5.53123 12.5703 4.84982 13.5789 3.67058ZM18.0287 20.1041C18.5047 19.4255 18.9155 18.6874 19.2626 17.8856C19.4057 17.5456 19.5403 17.1914 19.6678 16.8216C19.0799 16.5751 18.5514 16.2281 18.0783 15.779C17.0342 14.8114 16.5029 13.5928 16.4874 12.1284C16.4704 10.2483 17.3246 8.78277 19.0515 7.73642C18.0868 6.36508 16.6361 5.60391 14.7052 5.44807C13.9926 5.38758 13.1228 5.54115 12.0921 5.91203C11.0023 6.31196 10.3594 6.51256 10.1697 6.51256C9.916 6.51256 9.3373 6.341 8.43601 6.0027C7.53218 5.66553 6.80486 5.49398 6.25024 5.49398C5.23661 5.51083 4.29538 5.77433 3.42427 6.29142C2.55316 6.8085 1.85715 7.51287 1.33398 8.40579C0.668288 9.51745 0.335938 10.844 0.335938 12.3821C0.335938 13.7248 0.582437 15.1117 1.07416 16.544C1.5333 17.87 2.11938 19.0331 2.83225 20.0361C3.49666 20.9753 4.05129 21.6383 4.4947 22.0251C5.18944 22.6711 5.88545 22.9785 6.58372 22.9487C7.04286 22.9331 7.64339 22.7759 8.38884 22.4741C9.13315 22.1738 9.82902 22.0251 10.4779 22.0251C11.0965 22.0251 11.7731 22.1738 12.5094 22.4741C13.2432 22.7759 13.8736 22.9246 14.3964 22.9246C15.1245 22.9076 15.8045 22.6087 16.4392 22.0251C16.8486 21.6695 17.3799 21.0291 18.0287 20.1041Z" fill="white"/>
</svg>
