<svg width="22" height="24" viewBox="0 0 22 24" fill="none" xmlns="http://www.w3.org/2000/svg">
<path fill-rule="evenodd" clip-rule="evenodd" d="M15.8419 8.40657L12.4126 11.84L12.4113 11.8386L1.10255 0.53125C1.37459 0.531646 1.6417 0.603889 1.87685 0.74067L15.8419 8.40657ZM9.83326e-06 22.5576V22.2078L0 22.2001V2.14096L9.83326e-06 2.13324V1.79053C9.83326e-06 1.24769 0.190142 0.832981 0.497384 0.653871L12.0004 12.1582L11.8649 12.2939V12.3009L11.3288 12.8305L0.48774 23.6833C0.187386 23.4849 0.00413044 23.1005 9.83326e-06 22.5576ZM12.4126 12.4779L1.0681 23.8348C1.35284 23.8396 1.6333 23.7652 1.87823 23.6199L15.8708 15.9333L12.4126 12.4779ZM16.2539 8.63253L20.9011 11.1883H20.9011C21.8821 11.727 21.8821 12.6184 20.8997 13.1599L16.28 15.7087L12.7309 12.1596L16.2539 8.63253Z" fill="white"/>
</svg>
