<svg width="48" height="48" viewBox="0 0 48 48" fill="none" xmlns="http://www.w3.org/2000/svg">
<circle cx="24" cy="24" r="23.5" stroke="white"/>
<path d="M34.6455 22.8442C34.6368 22.0854 34.6339 21.321 34.631 20.5593H32.2852C32.2765 21.3182 32.2707 22.0798 32.2649 22.8442C31.4752 22.847 30.6913 22.8526 29.9075 22.8611V25.1347C30.6913 25.1431 31.481 25.1488 32.2649 25.1572C32.2736 25.916 32.2736 26.6776 32.2794 27.4364H34.6281C34.631 26.6776 34.6368 25.916 34.6426 25.1516C35.4323 25.1431 36.2161 25.1403 37 25.1319V22.8583C36.219 22.8526 35.4294 22.8526 34.6455 22.8442ZM19.2585 22.8555C19.2556 23.7632 19.2585 24.6738 19.2614 25.5816C20.8349 25.6321 22.4114 25.6097 23.9849 25.6321C23.291 29.0131 18.5443 30.1092 16.033 27.9002C13.4491 25.9638 13.5711 21.7172 16.2566 19.9186C18.1349 18.4684 20.803 18.8253 22.6814 20.0816C23.4188 19.4211 24.1097 18.7129 24.7746 17.9822C23.2127 16.7765 21.2965 15.9165 19.2585 16.0065C15.0024 15.8687 11.0917 19.4773 11.0221 23.6002C10.7492 26.9699 13.0369 30.2722 16.2653 31.4638C19.482 32.6638 23.6075 31.846 25.663 29.0468C27.0188 27.2791 27.312 25.0026 27.1523 22.8639C24.5191 22.8442 21.8888 22.847 19.2585 22.8555Z" fill="white"/>
</svg>
