<svg width="48" height="48" viewBox="0 0 48 48" fill="none" xmlns="http://www.w3.org/2000/svg">
<circle cx="24" cy="24" r="23.5" stroke="white"/>
<path d="M31.8531 22.5438H24.1628V25.6396H28.5561C28.3666 26.6403 27.7919 27.4866 26.9256 28.0537C26.1934 28.5332 25.259 28.8167 24.1607 28.8167C22.0343 28.8167 20.2357 27.4095 19.5929 25.5187C19.4312 25.0392 19.3375 24.5264 19.3375 23.999C19.3375 23.4715 19.4312 22.9587 19.5929 22.4792C20.2379 20.5905 22.0365 19.1833 24.1628 19.1833C25.3612 19.1833 26.4361 19.5878 27.2832 20.3799L29.6246 18.0847C28.2091 16.7922 26.3637 16 24.1628 16C20.9722 16 18.2115 17.7928 16.8684 20.407C16.315 21.4869 16 22.7085 16 24.001C16 25.2936 16.315 26.5131 16.8684 27.593C18.2115 30.2072 20.9722 32 24.1628 32C26.368 32 28.2155 31.2829 29.565 30.0612C31.1082 28.6687 32 26.6173 32 24.1803C32 23.6133 31.9489 23.0692 31.8531 22.5438Z" fill="white"/>
</svg>
